<?xml version="1.0" encoding="UTF-8" standalone="no"?>
<!-- Generator: Adobe Illustrator 19.0.0, SVG Export Plug-In . SVG Version: 6.00 Build 0)  -->

<svg
   xmlns:dc="http://purl.org/dc/elements/1.1/"
   xmlns:cc="http://creativecommons.org/ns#"
   xmlns:rdf="http://www.w3.org/1999/02/22-rdf-syntax-ns#"
   xmlns:svg="http://www.w3.org/2000/svg"
   xmlns="http://www.w3.org/2000/svg"
   xmlns:sodipodi="http://sodipodi.sourceforge.net/DTD/sodipodi-0.dtd"
   xmlns:inkscape="http://www.inkscape.org/namespaces/inkscape"
   version="1.1"
   id="Layer_1"
   x="0px"
   y="0px"
   viewBox="0 0 512 512"
   style="enable-background:new 0 0 512 512;"
   xml:space="preserve"
   inkscape:version="0.91 r13725"
   sodipodi:docname="bell.svg"><metadata
     id="metadata3383"><rdf:RDF><cc:Work
         rdf:about=""><dc:format>image/svg+xml</dc:format><dc:type
           rdf:resource="http://purl.org/dc/dcmitype/StillImage" /></cc:Work></rdf:RDF></metadata><defs
     id="defs3381" /><sodipodi:namedview
     pagecolor="#ffffff"
     bordercolor="#666666"
     borderopacity="1"
     objecttolerance="10"
     gridtolerance="10"
     guidetolerance="10"
     inkscape:pageopacity="0"
     inkscape:pageshadow="2"
     inkscape:window-width="1920"
     inkscape:window-height="1017"
     id="namedview3379"
     showgrid="false"
     inkscape:zoom="1.65625"
     inkscape:cx="150.76917"
     inkscape:cy="256"
     inkscape:window-x="-8"
     inkscape:window-y="-8"
     inkscape:window-maximized="1"
     inkscape:current-layer="Layer_1" /><g
     id="g3337"
     style="fill:#ffffff"><g
       id="g3339"
       style="fill:#ffffff"><path
         d="M438.21,415.136l-24.977-46.878V252.489c0-71.565-48.062-132.111-113.603-151.069V43.632C299.631,19.573,280.059,0,256,0    c-24.059,0-43.631,19.573-43.631,43.632v57.789C146.83,120.38,98.766,180.925,98.766,252.49v115.768l-24.976,46.878    c-4.81,9.027-4.538,19.652,0.726,28.423c5.265,8.769,14.514,14.005,24.743,14.005h99.158C200.106,487.865,225.283,512,256,512    c30.716,0,55.894-24.135,57.583-54.436h99.159c10.228,0,19.477-5.236,24.743-14.005    C442.747,434.788,443.019,424.163,438.21,415.136z M235.455,43.632c0-11.33,9.216-20.546,20.544-20.546    s20.544,9.216,20.544,20.546V96.6c-6.726-0.882-13.583-1.342-20.544-1.342c-6.963,0-13.819,0.461-20.544,1.342V43.632z     M121.853,252.489c0-73.968,60.178-134.147,134.147-134.147s134.147,60.179,134.147,134.147v106.217H121.853V252.489z     M256,488.914c-17.981,0-32.795-13.792-34.435-31.35h68.872C288.795,475.122,273.979,488.914,256,488.914z M417.69,431.676    c-0.506,0.843-1.999,2.802-4.948,2.802H99.259c-2.948,0-4.443-1.959-4.948-2.802c-0.506-0.841-1.532-3.082-0.145-5.685    l23.549-44.199h276.572l23.549,44.199C419.221,428.594,418.194,430.834,417.69,431.676z"
         id="path3341"
         style="fill:#ffffff" /></g></g><g
     id="g3343"
     style="fill:#ffffff"><g
       id="g3345"
       style="fill:#ffffff"><path
         d="M256,149.113c-57.002,0-103.378,46.376-103.378,103.378c0,6.374,5.168,11.543,11.543,11.543    c6.375,0,11.543-5.169,11.543-11.543c0-44.272,36.019-80.292,80.292-80.292c6.375,0,11.543-5.169,11.543-11.543    C267.543,154.28,262.375,149.113,256,149.113z"
         id="path3347"
         style="fill:#ffffff" /></g></g><g
     id="g3349" /><g
     id="g3351" /><g
     id="g3353" /><g
     id="g3355" /><g
     id="g3357" /><g
     id="g3359" /><g
     id="g3361" /><g
     id="g3363" /><g
     id="g3365" /><g
     id="g3367" /><g
     id="g3369" /><g
     id="g3371" /><g
     id="g3373" /><g
     id="g3375" /><g
     id="g3377" /></svg>